<svg xmlns="http://www.w3.org/2000/svg" viewBox="0 0 427 427">
  <g transform="translate(0,61)">
    <path fill="currentColor" fill-rule="evenodd" d="M 263 160 L 262 161 L 261 161 L 260 162 L 259 162 L 258 162 L 257 163 L 256 164 L 255 164 L 254 165 L 253 166 L 252 167 L 251 168 L 250 168 L 250 169 L 249 170 L 248 170 L 248 171 L 247 172 L 246 172 L 246 173 L 245 174 L 244 175 L 243 176 L 242 177 L 242 178 L 241 179 L 240 180 L 240 181 L 239 182 L 239 183 L 238 184 L 238 185 L 237 186 L 237 187 L 236 188 L 236 189 L 236 190 L 235 191 L 234 192 L 234 193 L 234 194 L 234 195 L 234 196 L 234 197 L 234 198 L 234 199 L 234 200 L 234 201 L 234 202 L 235 203 L 236 204 L 236 205 L 237 206 L 237 207 L 238 208 L 239 209 L 240 210 L 240 211 L 241 212 L 242 213 L 242 214 L 243 215 L 244 216 L 244 217 L 245 217 L 246 218 L 246 219 L 247 220 L 248 221 L 249 222 L 249 223 L 250 224 L 251 225 L 252 226 L 252 227 L 253 227 L 254 228 L 254 229 L 255 230 L 256 231 L 256 232 L 257 233 L 258 234 L 258 235 L 259 236 L 260 237 L 261 238 L 262 239 L 262 240 L 263 241 L 264 241 L 265 242 L 266 243 L 267 243 L 268 244 L 269 245 L 270 245 L 271 245 L 272 245 L 273 245 L 274 245 L 275 245 L 276 245 L 277 245 L 278 245 L 279 245 L 280 245 L 281 245 L 282 245 L 283 245 L 284 245 L 285 245 L 286 245 L 287 245 L 288 245 L 289 245 L 290 245 L 291 245 L 292 244 L 293 244 L 294 244 L 295 243 L 296 243 L 297 243 L 298 243 L 299 243 L 300 242 L 301 242 L 302 241 L 303 241 L 304 241 L 305 241 L 306 240 L 307 240 L 308 239 L 309 239 L 310 239 L 311 238 L 312 237 L 313 236 L 314 236 L 314 235 L 315 234 L 315 233 L 316 232 L 316 231 L 316 230 L 316 229 L 316 228 L 316 227 L 315 226 L 314 225 L 314 224 L 313 223 L 312 222 L 311 221 L 310 220 L 309 220 L 308 219 L 308 218 L 307 218 L 306 217 L 305 216 L 304 216 L 303 215 L 302 214 L 301 213 L 300 212 L 299 212 L 298 211 L 298 210 L 297 210 L 296 209 L 296 208 L 295 208 L 294 207 L 293 206 L 292 205 L 292 204 L 291 204 L 290 203 L 290 202 L 289 202 L 288 201 L 288 200 L 287 199 L 287 198 L 286 197 L 285 196 L 285 195 L 284 194 L 284 193 L 283 192 L 282 191 L 282 190 L 282 189 L 282 188 L 281 187 L 281 186 L 280 185 L 280 184 L 280 183 L 280 182 L 279 181 L 279 180 L 278 179 L 278 178 L 278 177 L 278 176 L 278 175 L 277 174 L 277 173 L 276 172 L 276 171 L 276 170 L 276 169 L 275 168 L 275 167 L 274 166 L 274 165 L 274 164 L 273 163 L 272 162 L 271 162 L 270 161 L 269 160 L 268 160 L 267 160 L 266 160 L 265 160 L 264 160 Z M 266 202 L 267 201 L 268 201 L 269 201 L 270 201 L 271 202 L 272 203 L 273 203 L 274 204 L 274 205 L 275 206 L 275 207 L 275 208 L 275 209 L 275 210 L 275 211 L 274 212 L 273 213 L 272 214 L 271 214 L 270 214 L 269 214 L 268 214 L 267 214 L 266 214 L 265 214 L 264 213 L 264 212 L 263 211 L 262 210 L 262 209 L 262 208 L 262 207 L 262 206 L 263 205 L 263 204 L 264 203 L 265 203 Z M 208 0 L 208 1 L 207 2 L 206 3 L 206 4 L 205 5 L 204 6 L 204 7 L 204 8 L 203 9 L 202 10 L 202 11 L 201 12 L 200 13 L 200 14 L 200 15 L 199 16 L 198 17 L 198 18 L 198 19 L 197 20 L 196 20 L 196 21 L 196 22 L 195 23 L 194 24 L 194 25 L 193 26 L 193 27 L 192 28 L 192 29 L 191 30 L 190 31 L 190 32 L 189 33 L 189 34 L 188 35 L 188 36 L 187 37 L 186 38 L 186 39 L 185 40 L 185 41 L 184 42 L 184 43 L 183 44 L 182 45 L 182 46 L 181 47 L 181 48 L 180 49 L 180 50 L 179 51 L 178 52 L 178 53 L 177 54 L 176 55 L 176 56 L 176 57 L 175 58 L 174 59 L 174 60 L 173 61 L 172 62 L 172 63 L 171 64 L 171 65 L 170 66 L 170 67 L 169 68 L 168 69 L 168 70 L 167 71 L 166 72 L 166 73 L 166 74 L 165 75 L 164 76 L 164 77 L 163 78 L 163 79 L 162 80 L 162 81 L 161 82 L 160 83 L 160 84 L 159 85 L 158 86 L 158 87 L 158 88 L 157 89 L 156 90 L 156 91 L 155 92 L 154 93 L 154 94 L 154 95 L 153 96 L 152 97 L 152 98 L 151 99 L 150 100 L 150 101 L 149 102 L 149 103 L 148 104 L 148 105 L 147 106 L 146 107 L 146 108 L 145 109 L 145 110 L 144 111 L 143 110 L 142 109 L 141 108 L 140 107 L 140 106 L 140 105 L 139 104 L 138 103 L 138 102 L 137 102 L 136 101 L 136 100 L 135 99 L 135 98 L 134 97 L 134 96 L 133 95 L 132 94 L 132 93 L 131 92 L 130 91 L 130 90 L 129 89 L 129 88 L 128 87 L 128 86 L 127 85 L 126 84 L 125 84 L 124 85 L 123 86 L 123 87 L 122 88 L 122 89 L 121 90 L 120 91 L 120 92 L 120 93 L 119 94 L 118 95 L 118 96 L 117 97 L 116 98 L 116 99 L 115 100 L 115 101 L 114 102 L 114 103 L 113 104 L 112 105 L 112 106 L 111 107 L 111 108 L 110 109 L 109 110 L 109 111 L 108 112 L 108 113 L 107 114 L 107 115 L 106 116 L 106 117 L 105 118 L 104 119 L 104 120 L 103 121 L 103 122 L 102 123 L 102 124 L 101 125 L 100 126 L 100 127 L 100 128 L 99 129 L 98 130 L 98 131 L 97 132 L 96 133 L 96 134 L 96 135 L 95 136 L 94 137 L 94 138 L 93 139 L 92 140 L 92 141 L 91 142 L 91 143 L 90 144 L 90 145 L 89 146 L 88 147 L 88 148 L 88 149 L 87 150 L 86 151 L 86 152 L 85 153 L 84 154 L 84 155 L 83 156 L 83 157 L 82 158 L 82 159 L 81 160 L 81 161 L 80 162 L 80 163 L 79 164 L 78 165 L 78 166 L 77 167 L 76 168 L 76 169 L 75 170 L 75 171 L 74 172 L 74 173 L 73 174 L 72 175 L 72 176 L 72 177 L 71 178 L 70 179 L 70 180 L 69 181 L 69 182 L 68 183 L 67 184 L 67 185 L 66 186 L 66 187 L 65 188 L 65 189 L 64 190 L 63 191 L 63 192 L 62 193 L 62 194 L 62 195 L 61 196 L 60 196 L 60 197 L 60 198 L 59 199 L 58 200 L 58 201 L 57 202 L 57 203 L 56 204 L 56 205 L 55 206 L 54 207 L 54 208 L 53 209 L 53 210 L 52 211 L 51 212 L 51 213 L 50 214 L 50 215 L 49 216 L 49 217 L 48 218 L 48 219 L 47 220 L 46 221 L 46 222 L 45 223 L 44 224 L 44 225 L 44 226 L 43 227 L 42 228 L 42 229 L 41 230 L 40 231 L 40 232 L 40 233 L 39 234 L 38 235 L 38 236 L 37 237 L 36 238 L 36 239 L 35 240 L 35 241 L 34 242 L 34 243 L 33 244 L 32 245 L 32 246 L 31 247 L 31 248 L 30 249 L 30 250 L 29 251 L 29 252 L 28 253 L 27 254 L 27 255 L 26 256 L 26 257 L 25 258 L 25 259 L 24 260 L 24 261 L 23 262 L 22 263 L 22 264 L 21 265 L 20 266 L 20 267 L 19 268 L 19 269 L 18 270 L 18 271 L 17 272 L 17 273 L 16 274 L 16 275 L 15 276 L 14 277 L 14 278 L 13 279 L 13 280 L 12 281 L 11 282 L 11 283 L 11 284 L 10 285 L 9 286 L 9 287 L 8 288 L 8 289 L 7 290 L 7 291 L 6 292 L 5 293 L 5 294 L 4 295 L 4 296 L 4 297 L 3 298 L 2 299 L 2 300 L 1 301 L 0 302 L 0 303 L 1 303 L 2 303 L 3 303 L 4 303 L 5 303 L 6 303 L 7 303 L 8 303 L 9 303 L 10 303 L 11 303 L 12 303 L 13 303 L 14 303 L 15 303 L 16 303 L 17 303 L 18 303 L 19 303 L 20 303 L 21 303 L 22 303 L 23 303 L 24 303 L 25 303 L 26 303 L 27 303 L 28 303 L 29 303 L 30 303 L 31 303 L 32 303 L 33 303 L 34 303 L 35 303 L 36 303 L 37 303 L 38 303 L 39 303 L 40 303 L 41 303 L 42 303 L 43 303 L 44 303 L 45 303 L 46 303 L 47 303 L 48 303 L 49 303 L 50 303 L 51 303 L 52 303 L 53 303 L 54 303 L 55 303 L 56 303 L 57 303 L 58 303 L 59 303 L 60 303 L 61 303 L 62 303 L 63 303 L 64 303 L 65 303 L 66 303 L 67 303 L 68 303 L 69 303 L 70 303 L 71 303 L 72 303 L 73 303 L 74 303 L 75 303 L 76 303 L 77 303 L 78 303 L 79 303 L 80 303 L 81 303 L 82 303 L 83 303 L 84 303 L 85 303 L 86 303 L 87 303 L 88 303 L 89 303 L 90 303 L 91 303 L 92 303 L 93 303 L 94 303 L 95 303 L 96 303 L 97 303 L 98 303 L 99 303 L 100 303 L 101 303 L 102 303 L 103 303 L 104 303 L 105 303 L 106 303 L 107 303 L 108 303 L 109 303 L 110 303 L 111 303 L 112 303 L 113 303 L 114 303 L 115 303 L 116 303 L 117 303 L 118 303 L 119 303 L 120 303 L 121 303 L 122 303 L 123 303 L 124 303 L 125 303 L 126 303 L 127 303 L 128 303 L 129 303 L 130 303 L 131 303 L 132 303 L 133 303 L 134 303 L 135 303 L 136 303 L 137 303 L 138 303 L 139 303 L 140 303 L 141 303 L 142 303 L 143 303 L 144 303 L 145 303 L 146 303 L 147 303 L 148 303 L 149 303 L 150 303 L 151 303 L 152 303 L 153 303 L 154 303 L 155 303 L 156 303 L 157 303 L 158 303 L 159 303 L 160 303 L 161 303 L 162 303 L 163 303 L 164 303 L 165 303 L 166 303 L 167 303 L 168 303 L 169 303 L 170 303 L 171 303 L 172 303 L 173 303 L 174 303 L 175 303 L 176 303 L 177 303 L 178 303 L 179 303 L 180 303 L 181 303 L 182 303 L 183 303 L 184 303 L 185 303 L 186 303 L 187 303 L 188 303 L 189 303 L 190 303 L 191 303 L 192 303 L 193 303 L 194 303 L 195 303 L 196 303 L 197 303 L 198 303 L 199 303 L 200 303 L 201 303 L 202 303 L 203 303 L 204 303 L 205 303 L 206 303 L 207 303 L 208 303 L 209 303 L 210 303 L 211 303 L 212 303 L 212 302 L 211 301 L 211 300 L 210 300 L 209 299 L 209 298 L 208 297 L 208 296 L 207 296 L 206 295 L 206 294 L 205 293 L 204 292 L 204 291 L 203 290 L 202 289 L 202 288 L 201 288 L 200 287 L 200 286 L 199 285 L 198 284 L 198 283 L 197 282 L 196 281 L 196 280 L 195 280 L 194 279 L 194 278 L 193 277 L 192 276 L 192 275 L 191 274 L 190 273 L 189 272 L 188 271 L 187 271 L 186 271 L 185 271 L 184 271 L 183 271 L 182 271 L 181 271 L 180 271 L 179 271 L 178 271 L 177 271 L 176 271 L 175 271 L 174 271 L 173 271 L 172 271 L 171 271 L 170 271 L 169 271 L 168 271 L 167 271 L 166 271 L 165 271 L 164 271 L 163 271 L 162 271 L 161 271 L 160 271 L 159 271 L 158 270 L 159 269 L 160 268 L 160 267 L 160 266 L 161 265 L 162 265 L 162 264 L 162 263 L 163 262 L 164 261 L 164 260 L 165 259 L 166 258 L 166 257 L 167 256 L 167 255 L 168 254 L 168 253 L 169 252 L 170 251 L 170 250 L 171 249 L 171 248 L 172 247 L 172 246 L 173 245 L 173 244 L 174 243 L 174 242 L 175 241 L 176 241 L 176 240 L 176 239 L 177 238 L 178 237 L 178 236 L 179 235 L 180 234 L 180 233 L 181 232 L 182 231 L 182 230 L 183 229 L 184 230 L 184 231 L 185 232 L 186 233 L 186 234 L 187 235 L 188 236 L 188 237 L 189 238 L 190 239 L 191 240 L 192 241 L 192 242 L 193 243 L 194 244 L 194 245 L 195 246 L 196 247 L 197 248 L 197 249 L 198 250 L 198 251 L 199 252 L 200 253 L 201 254 L 202 255 L 203 256 L 203 257 L 204 258 L 204 259 L 205 259 L 206 260 L 206 261 L 207 262 L 208 263 L 208 264 L 209 265 L 210 266 L 210 267 L 211 267 L 212 268 L 212 269 L 213 270 L 214 271 L 214 272 L 215 273 L 216 274 L 216 275 L 217 276 L 218 277 L 219 278 L 219 279 L 220 280 L 221 281 L 222 282 L 222 283 L 223 284 L 224 285 L 225 286 L 225 287 L 226 288 L 227 289 L 228 290 L 228 291 L 229 291 L 230 292 L 230 293 L 231 294 L 232 295 L 232 296 L 233 297 L 234 298 L 235 299 L 236 300 L 236 301 L 237 302 L 238 303 L 239 303 L 240 303 L 241 303 L 242 303 L 243 303 L 244 303 L 245 303 L 246 303 L 247 303 L 248 303 L 249 303 L 250 303 L 251 303 L 252 303 L 253 303 L 254 303 L 255 303 L 256 303 L 257 303 L 258 303 L 259 303 L 260 303 L 261 303 L 262 303 L 263 303 L 264 303 L 265 303 L 266 303 L 267 303 L 268 303 L 269 303 L 270 303 L 271 303 L 272 303 L 273 303 L 274 303 L 275 303 L 276 303 L 277 303 L 278 303 L 279 303 L 280 303 L 281 303 L 282 303 L 283 303 L 284 303 L 285 303 L 286 303 L 287 303 L 288 303 L 289 303 L 290 303 L 291 303 L 292 303 L 293 303 L 294 303 L 295 303 L 296 303 L 297 303 L 298 303 L 299 303 L 300 303 L 301 303 L 302 303 L 303 303 L 304 303 L 305 303 L 306 303 L 307 303 L 308 303 L 309 303 L 310 303 L 311 303 L 312 303 L 313 303 L 314 303 L 315 303 L 316 303 L 317 303 L 318 303 L 319 303 L 320 303 L 321 303 L 322 303 L 323 303 L 324 303 L 325 303 L 326 303 L 327 303 L 328 303 L 329 303 L 330 303 L 331 303 L 332 303 L 333 303 L 334 303 L 335 303 L 336 303 L 337 303 L 338 303 L 339 303 L 340 303 L 341 303 L 342 303 L 343 303 L 344 303 L 345 303 L 346 303 L 347 303 L 348 303 L 349 303 L 350 303 L 351 303 L 352 303 L 353 303 L 354 303 L 355 303 L 356 303 L 357 303 L 358 303 L 359 303 L 360 303 L 361 303 L 362 303 L 363 303 L 364 303 L 365 303 L 366 303 L 367 303 L 368 303 L 369 303 L 370 303 L 371 303 L 372 303 L 373 303 L 374 303 L 375 303 L 376 303 L 377 303 L 378 303 L 379 303 L 380 303 L 381 303 L 382 303 L 383 303 L 384 303 L 385 303 L 386 303 L 387 303 L 388 303 L 389 303 L 390 303 L 391 303 L 392 303 L 393 303 L 394 303 L 395 303 L 396 303 L 397 303 L 398 303 L 399 303 L 400 303 L 401 303 L 402 303 L 403 303 L 404 303 L 405 303 L 406 303 L 407 303 L 408 303 L 409 303 L 410 303 L 411 303 L 412 303 L 413 303 L 414 303 L 415 303 L 416 303 L 417 303 L 418 303 L 419 303 L 420 303 L 421 303 L 422 303 L 423 303 L 424 303 L 425 303 L 426 303 L 426 302 L 425 301 L 425 300 L 424 299 L 424 298 L 423 297 L 423 296 L 422 295 L 421 294 L 421 293 L 420 292 L 419 291 L 419 290 L 418 289 L 418 288 L 417 287 L 417 286 L 416 285 L 416 284 L 415 283 L 415 282 L 414 281 L 413 280 L 413 279 L 412 278 L 412 277 L 411 276 L 410 275 L 410 274 L 409 273 L 409 272 L 408 271 L 408 270 L 407 269 L 407 268 L 406 267 L 405 266 L 405 265 L 404 264 L 404 263 L 403 262 L 403 261 L 402 260 L 401 259 L 401 258 L 400 257 L 400 256 L 399 255 L 399 254 L 398 253 L 397 252 L 397 251 L 396 250 L 396 249 L 395 248 L 395 247 L 394 246 L 394 245 L 393 244 L 392 243 L 392 242 L 391 241 L 391 240 L 390 239 L 390 238 L 389 237 L 388 236 L 388 235 L 387 234 L 386 233 L 386 232 L 386 231 L 385 230 L 384 229 L 384 228 L 383 227 L 383 226 L 382 225 L 382 224 L 381 223 L 380 222 L 380 221 L 379 220 L 378 219 L 378 218 L 378 217 L 377 216 L 376 215 L 376 214 L 375 213 L 374 212 L 373 212 L 372 212 L 371 212 L 370 212 L 369 212 L 368 212 L 367 212 L 366 212 L 365 212 L 364 212 L 363 212 L 362 212 L 361 212 L 360 212 L 359 212 L 358 212 L 357 212 L 356 212 L 355 212 L 354 212 L 353 212 L 352 212 L 351 212 L 350 212 L 349 212 L 348 212 L 347 212 L 346 212 L 345 212 L 344 212 L 343 212 L 342 212 L 341 212 L 340 212 L 339 212 L 338 212 L 338 213 L 339 214 L 340 215 L 340 216 L 340 217 L 341 218 L 342 219 L 342 220 L 342 221 L 343 222 L 344 223 L 344 224 L 345 225 L 346 226 L 346 227 L 347 228 L 347 229 L 348 230 L 348 231 L 349 232 L 350 233 L 350 234 L 350 235 L 351 236 L 352 237 L 352 238 L 353 239 L 353 240 L 354 241 L 354 242 L 355 243 L 356 244 L 356 245 L 357 246 L 357 247 L 358 248 L 358 249 L 359 250 L 360 251 L 360 252 L 360 253 L 361 254 L 362 255 L 362 256 L 363 257 L 364 258 L 364 259 L 365 260 L 365 261 L 366 262 L 366 263 L 367 264 L 368 265 L 368 266 L 368 267 L 369 267 L 370 268 L 370 269 L 371 270 L 370 271 L 369 271 L 368 271 L 367 271 L 366 271 L 365 271 L 364 271 L 363 271 L 362 271 L 361 271 L 360 271 L 359 271 L 358 271 L 357 271 L 356 271 L 355 271 L 354 271 L 353 271 L 352 271 L 351 271 L 350 271 L 349 271 L 348 271 L 347 271 L 346 271 L 345 271 L 344 271 L 343 271 L 342 271 L 341 271 L 340 271 L 339 271 L 338 271 L 337 271 L 336 271 L 335 271 L 334 271 L 333 271 L 332 271 L 331 271 L 330 271 L 329 271 L 328 271 L 327 271 L 326 271 L 325 271 L 324 271 L 323 271 L 322 271 L 321 271 L 320 271 L 319 271 L 318 271 L 317 271 L 316 271 L 315 271 L 314 271 L 313 271 L 312 271 L 311 271 L 310 271 L 309 271 L 308 271 L 307 271 L 306 271 L 305 271 L 304 271 L 303 271 L 302 271 L 301 271 L 300 271 L 299 271 L 298 271 L 297 271 L 296 271 L 295 271 L 294 271 L 293 271 L 292 271 L 291 271 L 290 271 L 289 271 L 288 271 L 287 271 L 286 271 L 285 271 L 284 271 L 283 271 L 282 271 L 281 271 L 280 271 L 279 271 L 278 271 L 277 271 L 276 271 L 275 271 L 274 271 L 273 271 L 272 271 L 271 271 L 270 271 L 269 271 L 268 271 L 267 271 L 266 271 L 265 271 L 264 271 L 263 271 L 262 271 L 261 271 L 260 271 L 259 271 L 258 271 L 257 271 L 256 271 L 255 271 L 254 270 L 253 269 L 252 268 L 251 267 L 250 266 L 250 265 L 249 264 L 248 263 L 248 262 L 247 261 L 246 260 L 245 259 L 245 258 L 244 257 L 243 256 L 242 255 L 242 254 L 241 253 L 240 252 L 239 251 L 239 250 L 238 249 L 237 248 L 236 247 L 236 246 L 235 245 L 234 244 L 234 243 L 233 242 L 232 241 L 231 240 L 230 239 L 230 238 L 229 237 L 228 236 L 227 235 L 227 234 L 226 233 L 225 232 L 224 231 L 224 230 L 223 229 L 222 228 L 222 227 L 221 226 L 220 225 L 219 224 L 218 223 L 218 222 L 217 221 L 216 220 L 216 219 L 215 218 L 214 217 L 214 216 L 213 216 L 212 215 L 212 214 L 211 213 L 211 212 L 210 211 L 209 210 L 208 209 L 208 208 L 207 207 L 206 206 L 205 205 L 204 204 L 204 203 L 203 202 L 202 201 L 202 200 L 201 199 L 201 198 L 202 197 L 202 196 L 203 195 L 204 194 L 204 193 L 204 192 L 205 191 L 206 190 L 206 189 L 207 188 L 208 187 L 208 186 L 209 185 L 209 184 L 210 183 L 211 182 L 211 181 L 212 180 L 212 179 L 213 178 L 214 177 L 214 176 L 215 175 L 215 174 L 216 173 L 216 172 L 217 171 L 218 170 L 218 169 L 218 168 L 219 167 L 220 166 L 220 165 L 221 164 L 222 163 L 222 162 L 223 161 L 224 160 L 224 159 L 225 158 L 225 157 L 226 156 L 227 155 L 227 154 L 228 153 L 228 152 L 229 151 L 230 150 L 230 149 L 230 148 L 231 147 L 232 147 L 232 146 L 232 145 L 233 144 L 234 143 L 234 142 L 235 141 L 236 140 L 236 139 L 236 138 L 237 137 L 238 136 L 239 135 L 240 134 L 241 135 L 242 134 L 243 134 L 244 135 L 245 135 L 246 135 L 247 135 L 248 135 L 249 135 L 250 135 L 251 135 L 252 135 L 253 135 L 254 135 L 255 135 L 256 135 L 257 135 L 258 135 L 259 135 L 260 135 L 261 135 L 262 135 L 263 134 L 264 134 L 265 134 L 266 134 L 267 134 L 268 134 L 269 134 L 270 134 L 271 134 L 272 134 L 273 134 L 274 134 L 275 134 L 276 134 L 277 134 L 278 134 L 279 134 L 280 134 L 281 134 L 282 134 L 283 134 L 284 134 L 285 134 L 286 134 L 287 134 L 288 134 L 289 134 L 290 134 L 291 134 L 292 134 L 293 135 L 294 136 L 294 137 L 295 138 L 296 139 L 296 140 L 297 141 L 297 142 L 298 143 L 299 144 L 299 145 L 300 146 L 300 147 L 301 148 L 301 149 L 302 150 L 302 151 L 303 152 L 304 153 L 304 154 L 305 155 L 306 156 L 306 157 L 307 158 L 308 159 L 308 160 L 308 161 L 309 161 L 310 162 L 310 163 L 310 164 L 311 165 L 312 166 L 313 166 L 314 166 L 315 166 L 316 166 L 317 166 L 318 166 L 319 166 L 320 166 L 321 166 L 322 166 L 323 166 L 324 166 L 325 166 L 326 166 L 327 166 L 328 166 L 329 166 L 330 166 L 331 166 L 332 166 L 333 166 L 334 166 L 335 166 L 336 166 L 337 166 L 338 166 L 339 166 L 340 166 L 341 166 L 342 166 L 343 166 L 344 166 L 345 166 L 346 166 L 347 166 L 348 165 L 347 164 L 346 163 L 346 162 L 346 161 L 345 160 L 345 159 L 344 158 L 344 157 L 343 156 L 342 155 L 342 154 L 341 153 L 341 152 L 340 151 L 340 150 L 339 149 L 339 148 L 338 147 L 338 146 L 337 145 L 336 144 L 336 143 L 335 142 L 334 141 L 334 140 L 333 139 L 333 138 L 332 137 L 332 136 L 331 135 L 330 134 L 330 133 L 329 132 L 328 131 L 328 130 L 328 129 L 327 128 L 326 127 L 326 126 L 325 125 L 325 124 L 324 123 L 324 122 L 323 121 L 322 120 L 322 119 L 321 118 L 320 117 L 320 116 L 320 115 L 319 114 L 318 113 L 318 112 L 317 111 L 317 110 L 316 109 L 316 108 L 315 107 L 314 106 L 314 105 L 313 104 L 312 103 L 312 102 L 311 102 L 310 102 L 309 102 L 308 102 L 307 102 L 306 102 L 305 102 L 304 102 L 303 102 L 302 102 L 301 102 L 300 102 L 299 102 L 298 102 L 297 102 L 296 102 L 295 102 L 294 102 L 293 102 L 292 102 L 291 102 L 290 102 L 289 102 L 288 102 L 287 102 L 286 102 L 285 102 L 284 102 L 283 102 L 282 102 L 281 102 L 280 102 L 279 102 L 278 102 L 277 102 L 276 101 L 276 100 L 275 99 L 274 98 L 274 97 L 273 96 L 272 95 L 272 94 L 272 93 L 271 92 L 270 91 L 270 90 L 269 89 L 268 88 L 268 87 L 267 86 L 267 85 L 266 84 L 266 83 L 265 82 L 264 81 L 264 80 L 263 79 L 263 78 L 262 77 L 262 76 L 261 75 L 261 74 L 260 73 L 260 72 L 259 71 L 258 70 L 258 69 L 257 68 L 256 67 L 256 66 L 256 65 L 255 64 L 254 63 L 254 62 L 253 61 L 253 60 L 252 59 L 252 58 L 251 58 L 250 57 L 250 56 L 250 55 L 249 54 L 248 53 L 248 52 L 247 51 L 247 50 L 246 49 L 246 48 L 245 47 L 244 46 L 244 45 L 243 44 L 242 43 L 242 42 L 242 41 L 241 40 L 240 39 L 240 38 L 239 37 L 239 36 L 238 35 L 238 34 L 237 33 L 236 32 L 236 31 L 236 30 L 235 29 L 234 28 L 234 27 L 233 26 L 232 25 L 232 24 L 231 23 L 231 22 L 230 21 L 230 20 L 229 19 L 229 18 L 228 17 L 228 16 L 227 15 L 226 14 L 226 13 L 225 12 L 224 11 L 224 10 L 224 9 L 223 8 L 222 7 L 222 6 L 221 5 L 221 4 L 220 3 L 220 2 L 219 1 L 218 0 L 217 0 L 216 0 L 215 0 L 214 0 L 213 0 L 212 0 L 211 0 L 210 0 L 209 0 Z M 212 58 L 213 57 L 214 58 L 215 59 L 215 60 L 216 61 L 216 62 L 216 63 L 217 64 L 218 65 L 219 66 L 219 67 L 220 68 L 220 69 L 221 70 L 221 71 L 222 72 L 223 73 L 223 74 L 224 75 L 224 76 L 224 77 L 225 77 L 226 78 L 226 79 L 226 80 L 227 81 L 228 82 L 228 83 L 229 84 L 229 85 L 230 86 L 230 87 L 231 88 L 232 89 L 232 90 L 233 91 L 234 92 L 234 93 L 234 94 L 235 95 L 236 96 L 236 97 L 237 98 L 237 99 L 238 100 L 238 101 L 237 102 L 236 102 L 235 102 L 234 102 L 233 102 L 232 102 L 231 102 L 230 102 L 229 102 L 228 102 L 227 102 L 226 102 L 225 102 L 224 102 L 223 102 L 222 102 L 221 102 L 220 102 L 220 103 L 219 104 L 219 105 L 218 106 L 218 107 L 217 108 L 216 109 L 216 110 L 216 111 L 215 112 L 214 112 L 214 113 L 214 114 L 213 115 L 212 116 L 212 117 L 211 118 L 210 119 L 210 120 L 210 121 L 209 122 L 208 123 L 208 124 L 207 125 L 206 126 L 206 127 L 205 128 L 204 129 L 204 130 L 204 131 L 203 132 L 202 133 L 202 134 L 201 135 L 200 136 L 200 137 L 199 138 L 199 139 L 198 140 L 198 141 L 197 142 L 196 143 L 196 144 L 195 145 L 194 146 L 194 147 L 193 148 L 192 149 L 192 150 L 191 151 L 191 152 L 190 153 L 190 154 L 189 155 L 188 156 L 188 157 L 187 158 L 186 159 L 186 160 L 186 161 L 185 162 L 184 163 L 184 164 L 183 165 L 182 166 L 182 167 L 181 168 L 181 169 L 180 170 L 179 171 L 178 172 L 178 173 L 178 174 L 177 175 L 176 176 L 176 177 L 175 178 L 174 179 L 174 180 L 174 181 L 173 182 L 172 182 L 172 183 L 171 184 L 171 185 L 170 186 L 170 187 L 169 188 L 168 189 L 168 190 L 167 191 L 167 192 L 166 193 L 166 194 L 165 195 L 164 196 L 164 197 L 163 198 L 163 199 L 162 200 L 162 201 L 161 202 L 160 203 L 160 204 L 159 205 L 158 206 L 158 207 L 157 208 L 157 209 L 156 210 L 156 211 L 155 212 L 154 213 L 154 214 L 153 215 L 152 216 L 152 217 L 151 218 L 151 219 L 150 220 L 150 221 L 149 222 L 148 223 L 148 224 L 147 225 L 146 226 L 146 227 L 145 228 L 145 229 L 144 230 L 144 231 L 143 232 L 143 233 L 142 234 L 141 235 L 140 236 L 140 237 L 140 238 L 139 239 L 138 240 L 138 241 L 137 242 L 136 243 L 136 244 L 136 245 L 135 246 L 134 247 L 134 248 L 133 249 L 132 250 L 132 251 L 131 252 L 130 253 L 130 254 L 129 255 L 128 256 L 128 257 L 127 258 L 127 259 L 126 260 L 126 261 L 125 262 L 124 263 L 124 264 L 123 265 L 123 266 L 122 267 L 121 268 L 121 269 L 120 270 L 119 271 L 118 271 L 117 271 L 116 271 L 115 271 L 114 271 L 113 271 L 112 271 L 111 271 L 110 271 L 109 271 L 108 271 L 107 271 L 106 271 L 105 271 L 104 271 L 103 271 L 102 271 L 101 271 L 100 271 L 99 271 L 98 271 L 97 271 L 96 271 L 95 271 L 94 271 L 93 271 L 92 271 L 91 271 L 90 271 L 89 271 L 88 271 L 87 271 L 86 271 L 85 271 L 84 271 L 83 271 L 82 271 L 81 271 L 80 271 L 79 271 L 78 271 L 77 271 L 76 271 L 75 271 L 74 271 L 73 271 L 72 271 L 71 271 L 70 271 L 69 271 L 68 271 L 67 271 L 66 271 L 65 271 L 64 271 L 63 271 L 62 271 L 61 271 L 60 271 L 59 271 L 58 271 L 57 271 L 56 270 L 56 269 L 57 268 L 58 267 L 58 266 L 58 265 L 59 264 L 60 263 L 60 262 L 61 261 L 62 260 L 62 259 L 62 258 L 63 257 L 64 256 L 64 255 L 65 254 L 66 253 L 66 252 L 67 251 L 67 250 L 68 249 L 68 248 L 69 247 L 70 246 L 70 245 L 70 244 L 71 243 L 71 242 L 72 241 L 73 240 L 73 239 L 74 238 L 74 237 L 75 236 L 76 235 L 76 234 L 77 233 L 77 232 L 78 231 L 78 230 L 79 229 L 80 228 L 80 227 L 80 226 L 81 225 L 82 225 L 82 224 L 82 223 L 83 222 L 84 221 L 84 220 L 85 219 L 85 218 L 86 217 L 86 216 L 87 215 L 88 214 L 88 213 L 89 212 L 89 211 L 90 210 L 90 209 L 91 208 L 92 207 L 92 206 L 93 205 L 93 204 L 94 203 L 95 202 L 95 201 L 96 200 L 96 199 L 96 198 L 97 197 L 98 196 L 98 195 L 99 194 L 100 193 L 100 192 L 101 191 L 102 190 L 102 189 L 102 188 L 103 187 L 104 187 L 104 186 L 104 185 L 105 184 L 106 183 L 106 182 L 107 181 L 108 180 L 108 179 L 108 178 L 109 177 L 109 176 L 110 175 L 110 174 L 111 173 L 112 172 L 112 171 L 113 170 L 114 169 L 114 168 L 115 167 L 115 166 L 116 165 L 116 164 L 116 163 L 117 162 L 118 161 L 118 160 L 119 159 L 120 158 L 120 157 L 121 156 L 122 155 L 122 154 L 123 153 L 123 152 L 124 151 L 124 150 L 125 149 L 126 148 L 127 147 L 128 148 L 128 149 L 129 149 L 130 150 L 130 151 L 131 152 L 132 153 L 132 154 L 133 155 L 134 156 L 134 157 L 135 158 L 136 159 L 136 160 L 137 161 L 138 162 L 138 163 L 139 164 L 140 165 L 140 166 L 140 167 L 141 168 L 142 169 L 143 170 L 143 171 L 144 172 L 144 173 L 145 174 L 145 175 L 146 176 L 147 177 L 148 178 L 148 179 L 149 180 L 150 181 L 151 180 L 152 179 L 152 178 L 153 177 L 154 176 L 154 175 L 154 174 L 155 173 L 156 173 L 156 172 L 156 171 L 157 170 L 158 169 L 158 168 L 159 167 L 159 166 L 160 165 L 160 164 L 161 163 L 162 162 L 162 161 L 163 160 L 164 159 L 164 158 L 165 157 L 166 156 L 166 155 L 166 154 L 167 153 L 167 152 L 168 151 L 168 150 L 168 149 L 168 148 L 167 147 L 166 146 L 165 145 L 164 144 L 164 143 L 164 142 L 165 141 L 166 140 L 166 139 L 166 138 L 167 137 L 168 136 L 168 135 L 169 134 L 170 133 L 170 132 L 171 131 L 171 130 L 172 129 L 172 128 L 173 127 L 173 126 L 174 125 L 174 124 L 175 123 L 176 122 L 176 121 L 176 120 L 177 119 L 178 119 L 178 118 L 178 117 L 179 116 L 180 115 L 180 114 L 181 113 L 181 112 L 182 111 L 182 110 L 183 109 L 184 109 L 184 108 L 185 107 L 185 106 L 186 105 L 186 104 L 187 103 L 187 102 L 188 101 L 188 100 L 189 99 L 190 98 L 190 97 L 191 96 L 192 95 L 192 94 L 192 93 L 193 92 L 194 91 L 194 90 L 195 89 L 195 88 L 196 87 L 196 86 L 197 85 L 198 84 L 198 83 L 199 82 L 200 81 L 200 80 L 200 79 L 201 78 L 202 77 L 202 76 L 203 75 L 204 74 L 204 73 L 204 72 L 205 71 L 205 70 L 206 69 L 206 68 L 207 67 L 208 66 L 209 65 L 209 64 L 210 63 L 210 62 L 211 61 L 211 60 L 212 59 Z"/>
  </g>
</svg>
